Coordinates
version=1
nRows=6
nColumns=40
inDegrees=yes

Units are S.I. units (second, meters, Newtons, ...)
If the header above contains a line with 'inDegrees', this indicates whether rotational values are in degrees (yes) or radians (no).

endheader
time	pelvis_tilt	pelvis_list	pelvis_rotation	pelvis_tx	pelvis_ty	pelvis_tz	hip_flexion_r	hip_adduction_r	hip_rotation_r	knee_angle_r	knee_angle_r_beta	ankle_angle_r	subtalar_angle_r	mtp_angle_r	hip_flexion_l	hip_adduction_l	hip_rotation_l	knee_angle_l	knee_angle_l_beta	ankle_angle_l	subtalar_angle_l	mtp_angle_l	lumbar_extension	lumbar_bending	lumbar_rotation	arm_flex_r	arm_add_r	arm_rot_r	elbow_flex_r	pro_sup_r	wrist_flex_r	wrist_dev_r	arm_flex_l	arm_add_l	arm_rot_l	elbow_flex_l	pro_sup_l	wrist_flex_l	wrist_dev_l
      4.29999999999999982236	      6.05998282291299794622	     -2.88498569323648901275	   -179.64534792421611086866	      0.41111549064304009349	      0.58676744843662942408	     -0.98407627166100042349	     75.70865624972338991938	    -49.75488644277230321222	      6.46981608071216385270	     70.87359049140766842356	      1.23697750678520979051	      0.51696069166236646719	      0.00000000000000000000	      0.00000000000000000000	     70.95734119844577492131	    -48.48914580864002488170	     -5.64464306531075887818	     73.05288674565417750273	      1.27501340179819089293	      4.51695460610965326964	      0.00000000000000000000	      0.00000000000000000000	    -54.19141669992594501082	     -1.03496881724669775870	      1.25115312747120510650	     56.26141840139549543665	     -7.51578254310928350890	     38.59465292441910833077	      1.35118394608116165756	     73.51763014270574103648	      0.00000000000000000000	      0.00000000000000000000	     50.31939127641479103659	     -1.92615262169430034866	     32.67732612261496427664	      1.04976845781948546765	      5.49637330817782476799	      0.00000000000000000000	      0.00000000000000000000
      4.30499999999999971578	      5.92218607331703417174	     -2.83690871570879332708	   -179.66672948027562028983	      0.41118443932987014389	      0.58704665625555652042	     -0.98420325471685254914	     75.48470885742898417448	    -49.75890606620193779008	      6.31833481446816414007	     70.85459276968424546794	      1.23664593399075828373	      0.54995508421517547148	      0.00000000000000000000	      0.00000000000000000000	     70.84244931507605258503	    -48.46499980393272011270	     -5.50750148171293307797	     73.00904470081290753569	      1.27424821376490360336	      4.48301249789939593171	      0.00000000000000000000	      0.00000000000000000000	    -54.28802407898476189985	     -1.01360343803538821561	      1.34434969736319032130	     56.21187066102882567975	     -7.58135373066189544033	     38.48651934830886034433	      1.41349461754415250958	     73.36498584976608583474	      0.00000000000000000000	      0.00000000000000000000	     50.39332067901168699109	     -1.84614933226522381915	     32.76421190590404819432	      1.04140725418938373537	      5.13131220208171878738	      0.00000000000000000000	      0.00000000000000000000
      4.30999999999999960920	      5.90802508164213602271	     -2.80264315152319598567	   -179.66469735582634825732	      0.41138027446476349569	      0.58708286271845222526	     -0.98428104955173212343	     75.44644136754122598632	    -49.75749551721962404827	      6.24219905032791455568	     70.86817547916137982611	      1.23688299699247616914	      0.49408510541185929332	      0.00000000000000000000	      0.00000000000000000000	     70.88314762181734351998	    -48.42787776348799155812	     -5.39220523471682255945	     72.97919460439585748190	      1.27372723130038822958	      4.47000535886916683381	      0.00000000000000000000	      0.00000000000000000000	    -54.27219518291767030860	     -0.96832747022846354934	      1.24553304591886404573	     56.25305824523783826407	     -7.37023709699028461984	     38.37196345649655881971	      1.37090190001385803242	     72.23255021320964885945	      0.00000000000000000000	      0.00000000000000000000	     50.39580326315817870864	     -1.99111606707125621263	     32.58057584424592789674	      1.02029521638466480482	      5.80014238499307577257	      0.00000000000000000000	      0.00000000000000000000
      4.31500000000000039080	      6.26412580405351882007	     -2.44162565253397012555	   -179.59601094995539938282	      0.41164265348039869030	      0.58598642010768742239	     -0.98431123356660821244	     75.57128385542822002208	    -49.73322358201650672527	      5.69758389603522097389	     71.06176071948581807192	      1.24026169681940223732	      0.45077730951359762379	      0.00000000000000000000	      0.00000000000000000000	     72.01871524423663117886	    -48.41007577449850884932	     -4.39125685956729938653	     73.12974715126455294012	      1.27635486894051020101	      4.23936540634941660954	      0.00000000000000000000	      0.00000000000000000000	    -53.73846547386403216251	     -0.66950219901914864717	      1.68179288280796579436	     55.94505042193033972353	     -7.50725394135610191171	     38.11462802195605803490	      1.49531124133203108251	     70.82278684449244110510	      0.00000000000000000000	      0.00000000000000000000	     50.33961622008640546255	     -1.76879235086736219529	     32.20041416235750375563	      0.91235914402498863307	      7.45840091363257062795	      0.00000000000000000000	      0.00000000000000000000
      4.32000000000000028422	      5.51740842147971566334	     -2.49855382019372740388	   -179.66077796194272764296	      0.41149775317897985261	      0.58795917293199118081	     -0.98462708688179390037	     74.50668388294218402734	    -49.75921396491585113608	      5.48411738842770546398	     70.82897043160093630831	      1.23619873982914540989	      0.62322781880296895807	      0.00000000000000000000	      0.00000000000000000000	     70.76995424943726220590	    -48.47611081673037602968	     -4.85713783544186483709	     72.85850707992666741575	      1.27162083663231983977	      4.37159783877298036003	      0.00000000000000000000	      0.00000000000000000000	    -54.61642761146056557209	     -0.71304921922990660565	      1.73273554806409357809	     56.30834558863678296348	     -7.64586022226512707078	     37.50584576676872927692	      1.40358345510473014883	     73.86881092530202863600	      0.00000000000000000000	      0.00000000000000000000	     50.19534475056340028232	     -1.74355430635708641418	     35.87585871696529693509	      1.01246111039247344010	      4.50404411075572230772	      0.00000000000000000000	      0.00000000000000000000
      4.32500000000000017764	      5.40204209857544981332	     -2.43728468282635812869	   -179.66346666087102335041	      0.41159539948196377512	      0.58831963318965185827	     -0.98478554026831188750	     74.25032484164783852520	    -49.76055812130705646723	      5.28722299328159373033	     70.79673976667496049231	      1.23563620860608014418	      0.64895007144394023513	      0.00000000000000000000	      0.00000000000000000000	     70.66916878344602537254	    -48.46534519974347432480	     -4.75992962832700250431	     72.78581841610517244590	      1.27035218011975947761	      4.38055811501164082955	      0.00000000000000000000	      0.00000000000000000000	    -54.71851134532758464957	     -0.64593002462777115991	      1.75010854415574579335	     56.36326741934904305253	     -7.57004119530653341030	     37.53191417531268569974	      1.37402106733403117644	     73.77724994616811216019	      0.00000000000000000000	      0.00000000000000000000	     50.23540729667558935034	     -1.78786893256604217939	     35.81250015274095943596	      1.00155494009711110159	      4.74717056313398533263	      0.00000000000000000000	      0.00000000000000000000
